<svg width="800" height="600" viewBox="0 0 800 600" fill="none" xmlns="http://www.w3.org/2000/svg">
  <rect width="800" height="600" rx="32" fill="#0A0C19"/>
  <g filter="url(#glow)">
    <path d="M80 360C180 280 260 420 360 320C460 220 520 360 620 300C720 240 740 420 780 360" stroke="url(#grad1)" stroke-width="18" stroke-linecap="round"/>
  </g>
  <circle cx="560" cy="180" r="70" fill="url(#grad2)" fill-opacity="0.8"/>
  <rect x="140" y="130" width="180" height="90" rx="18" fill="#131732" stroke="rgba(255,255,255,0.12)"/>
  <rect x="140" y="260" width="120" height="16" rx="8" fill="rgba(122,75,255,0.8)"/>
  <rect x="140" y="290" width="220" height="16" rx="8" fill="rgba(27,59,140,0.65)"/>
  <rect x="140" y="320" width="180" height="16" rx="8" fill="rgba(122,75,255,0.4)"/>
  <defs>
    <linearGradient id="grad1" x1="80" y1="360" x2="780" y2="360" gradientUnits="userSpaceOnUse">
      <stop offset="0" stop-color="#7A4BFF"/>
      <stop offset="1" stop-color="#1B3B8C"/>
    </linearGradient>
    <linearGradient id="grad2" x1="490" y1="180" x2="630" y2="180" gradientUnits="userSpaceOnUse">
      <stop offset="0" stop-color="#7A4BFF"/>
      <stop offset="1" stop-color="#A18BFF"/>
    </linearGradient>
    <filter id="glow" x="20" y="230" width="760" height="240" filterUnits="userSpaceOnUse" color-interpolation-filters="sRGB">
      <feGaussianBlur stdDeviation="10" result="blur"/>
      <feBlend in="SourceGraphic" in2="blur" mode="screen"/>
    </filter>
  </defs>
</svg>
